<?xml version='1.0' encoding='utf-8'?>
<svg xmlns="http://www.w3.org/2000/svg" width="1535px" height="1536px" version="1.1" viewBox="-228 286 1535 1536"> <g fill="#00b2e6"> <path d="m-228 285.21c-0.20937 0-0.41015 0.08316-0.55819 0.2312s-0.23121 0.34884-0.23121 0.5582l1e-3 1536c0 0.4359 0.35343 0.7894 0.7894 0.7894l1535 1e-3c0.2093 0 0.4101-0.0831 0.5582-0.2312s0.2312-0.3489 0.2312-0.5582l-1e-3 -1536c0-0.43597-0.3535-0.7894-0.7894-0.7894l-1535-1e-3z"/> </g> <g> <g fill="#fff"> <path d="m461.14 1117.8v9e-4 -4e-4l-0.69052-0.0044v-5e-4l0.69052 0.0053v-4e-4l-0.69052-0.0044v-5e-4l0.69052 0.0053m-0.69052-0.0053c0.00134-0.1912 0.15704-0.3446 0.34769-0.3428 0.19076 1e-3 0.34417 0.1564 0.34283 0.3472v9e-4 -4e-4c-0.00134 0.1906-0.15692 0.3444-0.3477 0.3427-0.19063-0.0011-0.34416-0.1569-0.34282-0.3476v5e-4 -5e-4c0.00134-0.1912 0.15704-0.3446 0.34769-0.3428 0.19076 1e-3 0.34417 0.1564 0.34283 0.3472v9e-4 -4e-4c-0.00134 0.1906-0.15692 0.3444-0.3477 0.3427-0.19063-0.0011-0.34416-0.1569-0.34282-0.3476v5e-4 -5e-4z"/> <path d="m461.14 1117.8v9e-4 -4e-4l-0.69052-0.0044v-5e-4l0.69052 0.0053v-4e-4l-0.69052-0.0044v-5e-4l0.69052 0.0053m-0.69052-0.0053c0.00134-0.1912 0.15704-0.3446 0.34769-0.3428 0.19076 1e-3 0.34417 0.1564 0.34283 0.3472v9e-4 -4e-4c-0.00134 0.1906-0.15692 0.3444-0.3477 0.3427-0.19063-0.0011-0.34416-0.1569-0.34282-0.3476v5e-4 -5e-4c0.00134-0.1912 0.15704-0.3446 0.34769-0.3428 0.19076 1e-3 0.34417 0.1564 0.34283 0.3472v9e-4 -4e-4c-0.00134 0.1906-0.15692 0.3444-0.3477 0.3427-0.19063-0.0011-0.34416-0.1569-0.34282-0.3476v5e-4 -5e-4z"/> <path d="m461.14 1117.8v9e-4 -4e-4l-0.69052-0.0044v-5e-4l0.69052 0.0053v-4e-4l-0.69052-0.0044v-5e-4l0.69052 0.0053m-0.69052-0.0053c0.00134-0.1912 0.15704-0.3446 0.34769-0.3428 0.19076 1e-3 0.34417 0.1564 0.34283 0.3472v9e-4 -4e-4c-0.00134 0.1906-0.15692 0.3444-0.3477 0.3427-0.19063-0.0011-0.34416-0.1569-0.34282-0.3476v5e-4 -5e-4c0.00134-0.1912 0.15704-0.3446 0.34769-0.3428 0.19076 1e-3 0.34417 0.1564 0.34283 0.3472v9e-4 -4e-4c-0.00134 0.1906-0.15692 0.3444-0.3477 0.3427-0.19063-0.0011-0.34416-0.1569-0.34282-0.3476v5e-4 -5e-4z"/> <path d="m461.14 1117.8v9e-4 -4e-4l-0.69052-0.0044v-5e-4l0.69052 0.0053v-4e-4l-0.69052-0.0044v-5e-4l0.69052 0.0053m-0.69052-0.0053c0.00134-0.1912 0.15704-0.3446 0.34769-0.3428 0.19076 1e-3 0.34417 0.1564 0.34283 0.3472v9e-4 -4e-4c-0.00134 0.1906-0.15692 0.3444-0.3477 0.3427-0.19063-0.0011-0.34416-0.1569-0.34282-0.3476v5e-4 -5e-4c0.00134-0.1912 0.15704-0.3446 0.34769-0.3428 0.19076 1e-3 0.34417 0.1564 0.34283 0.3472v9e-4 -4e-4c-0.00134 0.1906-0.15692 0.3444-0.3477 0.3427-0.19063-0.0011-0.34416-0.1569-0.34282-0.3476v5e-4 -5e-4z"/> <path d="m461.14 1117.8v9e-4 -4e-4l-0.69052-0.0044v-5e-4l0.69052 0.0053v-4e-4l-0.69052-0.0044v-5e-4l0.69052 0.0053m-0.69052-0.0053c0.00134-0.1912 0.15704-0.3446 0.34769-0.3428 0.19076 1e-3 0.34417 0.1564 0.34283 0.3472v9e-4 -4e-4c-0.00134 0.1906-0.15692 0.3444-0.3477 0.3427-0.19063-0.0011-0.34416-0.1569-0.34282-0.3476v5e-4 -5e-4c0.00134-0.1912 0.15704-0.3446 0.34769-0.3428 0.19076 1e-3 0.34417 0.1564 0.34283 0.3472v9e-4 -4e-4c-0.00134 0.1906-0.15692 0.3444-0.3477 0.3427-0.19063-0.0011-0.34416-0.1569-0.34282-0.3476v5e-4 -5e-4z"/> </g> <g fill="#dce5eb"> <path d="m440.89 1099.8v4e-4 -4e-4l-0.69064-0.0044v-1e-3l0.69064 0.0058v-4e-4l-0.69064-0.0044v-1e-3l0.69064 0.0058m-0.69064-0.0058c0.00134-0.19 0.15704-0.3438 0.34768-0.3423 0.1908 0.0011 0.34418 0.1567 0.34296 0.3477v4e-4 -4e-4c-0.0014 0.1906-0.15704 0.344-0.34781 0.343-0.19075-0.0019-0.34417-0.1571-0.34283-0.3484v1e-3 -1e-3c0.00134-0.19 0.15704-0.3438 0.34768-0.3423 0.1908 0.0011 0.34418 0.1567 0.34296 0.3477v4e-4 -4e-4c-0.0014 0.1906-0.15704 0.344-0.34781 0.343-0.19075-0.0019-0.34417-0.1571-0.34283-0.3484v1e-3 -1e-3z"/> </g> <g> <path d="m442.08 847.8 8e-5 -2.3e-4 -0.24773 0.6462-9e-5 3e-4c-70.998 185.17-143.88 376.29-221.95 439.83-22.434 18.256-45.86 26.668-68.494 26.668-59.524 0-105.44-56.908-111.61-119.19-6.9066-69.732 36.093-157.39 98.376-163.55h-2.3e-4c2.2102-0.219 4.4398-0.3308 6.6842-0.3308 10.75 0 21.628 2.5653 32.344 7.919 71.418 35.681 144.04 205.41 213.59 366.03 2.4923 5.7565-0.15381 12.444-5.9104 14.936-5.7565 2.4922-12.444-0.1539-14.936-5.9104-72.079-166.48-141.07-323.85-202.89-354.74h-2e-5c-7.7401-3.8671-15.159-5.5242-22.192-5.5242-1.4872 0-2.9719 0.0744-4.4448 0.2204h-2.3e-4c-43.186 4.2772-84.457 73.616-78.009 138.71 5.454 55.065 45.111 98.713 89.005 98.713 16.697 0 35.183-6.1321 54.155-21.572 72.036-58.623 142.62-241.36 215.08-430.34l-8e-5 3e-4 0.24778-0.6462c2.2458-5.8574 8.8145-8.7851 14.672-6.5393 5.8572 2.2458 8.7848 8.8144 6.539 14.672z"/> <path d="m418.67 649.68c-7.5914 51.268-14.664 99.743-11.199 132.76 3.3963 32.356 16.374 45.62 27.64 49.187 2.5154 0.7963 5.1627 1.2122 8.0006 1.2122 10.939 0 26.109-6.2741 46.229-24.189 25.46-22.67 55.473-60.832 86.649-100.56 4.6752-5.9576 13.295-6.997 19.252-2.3219 5.9575 4.6752 6.997 13.295 2.3219 19.252-30.554 38.934-62.269 79.432-89.986 104.11-21.949 19.544-43.495 31.132-64.466 31.132-5.5865 0-11.029-0.8293-16.278-2.4911-25.907-8.2021-42.653-34.514-46.637-72.469-3.9146-37.294 3.9742-89.863 11.345-139.64 1.1092-7.4912 8.0812-12.665 15.572-11.556 7.4912 1.1092 12.665 8.0813 11.556 15.573z"/> </g> <g fill="#7d8b96"> <path d="m409.77 640.54v0.00105l-11.417-0.76391c7.9713-59.299 16.142-121.6 36.745-148.95 11.062-14.687 25.547-19.529 40.936-19.529 14.901 0 31.082 4.5418 46.251 8.7593 3.0511 0.84826 4.8369 4.0094 3.9886 7.0605-0.8483 3.0512-4.0094 4.8369-7.0606 3.9887-15.582-4.3322-30.153-8.3402-43.179-8.3402-12.644 0-23.348 3.7722-31.775 14.961-18.301 24.299-26.321 82.439-34.54 143.58-0.40213 2.9914-3.0543 5.1589-6.0659 4.9574-3.0116-0.20157-5.3513-2.7031-5.3513-5.7213v-0.00105c0-3.1668 2.5672-5.7341 5.7341-5.7341s5.7342 2.5672 5.7342 5.7341z"/> </g> <g> <path d="m542.02 490.9-0.40705 1.6204q-1.79 4.8048-7.0036 7.0049-5.2458 2.1923-11.6 0.57018-6.0228-1.7972-9.0844-6.2162-0.9792-1.4268-1.5053-3.0058l-0.39746-1.5998q-0.27636-1.6292-0.00674-3.3066 1.0068-5.1185 5.8016-7.8388 4.7947-2.7203 11.191-1.802 6.3536 1.178 10.025 5.2902 3.6714 4.1123 2.9864 9.2836"/> </g> <g fill="#7d8b96"> <path d="m431.82 1451.8-4.8267 5.8745q-16.284 16.54-38.599 17.484-22.408 0.8643-40.44-15.217-16.54-16.284-17.485-38.599-0.27356-7.1904 1.3094-14.308l2.0626-7.0058q2.5344-6.9414 7.0181-13.252 14.303-18.978 36.309-22.637 22.007-3.6593 41.681 9.6681 18.977 14.303 22.637 36.309 3.6595 22.007-9.6679 41.682"/> </g> <g> <path d="m416.56 1441-3.2129 3.9097q-10.839 11.008-25.693 11.635-14.915 0.5735-26.918-10.132-11.01-10.84-11.638-25.693-0.18207-4.786 0.87163-9.5233l1.373-4.6631q1.687-4.62 4.6716-8.82 9.5205-12.63 24.169-15.064 14.648-2.4338 27.745 6.4388 12.632 9.5217 15.068 24.17 2.4359 14.648-6.4354 27.743"/> </g> <g fill="#7d8b96"> <path d="m596.77 713.38v0.00106l-10.544-3.1197c33.566-51.762 65.33-101.11 67.257-131.47 1.7568-27.672-22.428-39.708-52.585-53.823-2.868-1.3424-4.1048-4.7556-2.7624-7.6237 1.3423-2.8681 4.7556-4.1049 7.6237-2.7626 27.768 12.997 61.509 28.072 59.168 64.936-2.17 34.177-36.526 86.784-69.08 136.99-1.3821 2.1313-4.0017 3.0992-6.4374 2.3784-2.4358-0.72065-4.1072-2.958-4.1072-5.4982v-0.00106c0-3.1666 2.5672-5.7337 5.7338-5.7337 3.1666 0 5.7337 2.5671 5.7337 5.7337z"/> </g> <g> <path d="m613.76 522.73-0.407 1.6203q-0.79554 2.1355-2.2673 3.7564-0.73586 0.81043-1.6409 1.4923-0.9049 0.68185-1.979 1.2351l-1.1162 0.52104q-0.54873 0.3612-3.6204 1.0377-1.2478 0.20457-2.5504 0.22086-2.605 0.03254-5.429-0.68836-2.6767-0.7988-4.7685-2.1154-1.046-0.65833-1.9457-1.4461-0.54125-0.313-2.37-2.6547-2.9861-4.7012-1.639-9.0202 0.6345-2.1564 2.0173-3.8391 0.6914-0.84136 1.5698-1.5643 0.33582-0.44318 3.0292-1.8871 4.4202-2.0586 10.106-1.2424 2.8239 0.52356 5.1179 1.6268 0.65626 0.18517 3.143 1.9807 0.94835 0.7689 1.7643 1.6828 1.6317 1.8276 2.4028 3.8646 0.3856 1.0184 0.556 2.0891 0.23807 2.7226 0.0274 3.3299"/> </g> <g fill="#a41212"> <path d="m728.37 933.56c18.445-68.318 74.552-121.95 146.97-131.83 97.555-13.307 179.2 60.565 201.59 158.82 0 0 8.1358 24.039 3.7041 69.92-6.0351 62.485-32.289 120.85-71.98 168.07l-210.53 246.55-264.83-181.73c-50.882-34.855-91.808-84.068-114.35-142.65-16.557-43.019-15.156-68.358-15.156-68.358-4.7325-100.66 54.145-193.7 151.7-207.01 72.434-9.8797 136.8 27.332 172.87 88.216z"/> </g> </g> </svg>